HIERARCHY
ROOT SpineBase
{
  OFFSET 0.000000 0.000000 0.000000
  CHANNELS 6 Xposition Yposition Zposition Zrotation Xrotation Yrotation
  JOINT SpineMid
  {
    OFFSET 0.000000 32.620422 0.000000
    CHANNELS 3 Zrotation Xrotation Yrotation
    JOINT SpineShoulder
    {
      OFFSET 0.038898 24.213118 -0.763411
      CHANNELS 3 Zrotation Xrotation Yrotation
      JOINT Neck
      {
        OFFSET 0.040348 8.006834 -0.584679
        CHANNELS 3 Zrotation Xrotation Yrotation
        JOINT Head
        {
          OFFSET 5.137520 12.442713 4.626343
          CHANNELS 3 Zrotation Xrotation Yrotation
          End Site
          {
            OFFSET 0 0 0
          }
        }
      }
      JOINT ShoulderLeft
      {
        OFFSET -10.501586 -2.857821 -11.720740
        CHANNELS 3 Zrotation Xrotation Yrotation
        JOINT ElbowLeft
        {
          OFFSET -6.812837 -25.026514 -7.170564
          CHANNELS 3 Zrotation Xrotation Yrotation
          JOINT WristLeft
          {
            OFFSET 1.330747 -21.978123 -4.710808
            CHANNELS 3 Zrotation Xrotation Yrotation
            JOINT HandLeft
            {
              OFFSET 0.686917 -8.577698 0.722861
              CHANNELS 3 Zrotation Xrotation Yrotation
              JOINT HandTipLeft
              {
                OFFSET 0.623884 -8.070067 -0.465768
                CHANNELS 3 Zrotation Xrotation Yrotation
                End Site
                {
                  OFFSET 0 0 0
                }
              }
              JOINT ThumbLeft
              {
                OFFSET 4.243156 2.110330 2.106442
                CHANNELS 3 Zrotation Xrotation Yrotation
                End Site
                {
                  OFFSET 0 0 0
                }
              }
            }
          }
        }
      }
      JOINT ShoulderRight
      {
        OFFSET 11.963946 -4.671868 13.767735
        CHANNELS 3 Zrotation Xrotation Yrotation
        JOINT ElbowRight
        {
          OFFSET 2.267681 -25.891531 3.395402
          CHANNELS 3 Zrotation Xrotation Yrotation
          JOINT WristRight
          {
            OFFSET 1.065423 -25.180244 -2.674931
            CHANNELS 3 Zrotation Xrotation Yrotation
            JOINT HandRight
            {
              OFFSET -0.575430 -6.684756 -0.362546
              CHANNELS 3 Zrotation Xrotation Yrotation
              JOINT HandTipRight
              {
                OFFSET 0.839753 -6.018541 -1.309993
                CHANNELS 3 Zrotation Xrotation Yrotation
                End Site
                {
                  OFFSET 0 0 0
                }
              }
              JOINT ThumbRight
              {
                OFFSET -2.269016 -0.336800 -1.219044
                CHANNELS 3 Zrotation Xrotation Yrotation
                End Site
                {
                  OFFSET 0 0 0
                }
              }
            }
          }
        }
      }
    }
  }
  JOINT HipLeft
  {
    OFFSET -4.497741 1.854513 -8.390901
    CHANNELS 3 Zrotation Xrotation Yrotation
    JOINT KneeLeft
    {
      OFFSET -12.629655 -34.050760 -3.531758
      CHANNELS 3 Zrotation Xrotation Yrotation
      JOINT AnkleLeft
      {
        OFFSET -10.104619 -38.541024 4.765135
        CHANNELS 3 Zrotation Xrotation Yrotation
        JOINT FootLeft
        {
          OFFSET 1.582504 -7.652018 -6.789837
          CHANNELS 3 Zrotation Xrotation Yrotation
          End Site
          {
            OFFSET 0 0 0
          }
        }
      }
    }
  }
  JOINT HipRight
  {
    OFFSET 5.162942 -0.074484 1.212255
    CHANNELS 3 Zrotation Xrotation Yrotation
    JOINT KneeRight
    {
      OFFSET -6.660917 -37.498344 2.703397
      CHANNELS 3 Zrotation Xrotation Yrotation
      JOINT AnkleRight
      {
        OFFSET -8.124323 -35.618511 10.739854
        CHANNELS 3 Zrotation Xrotation Yrotation
        JOINT FootRight
        {
          OFFSET 2.351888 -8.082990 -4.852533
          CHANNELS 3 Zrotation Xrotation Yrotation
          End Site
          {
            OFFSET 0 0 0
          }
        }
      }
    }
  }
}
MOTION
Frames: 10
Frame Time: 0.033333
-35.599164 82.486522 345.146943 -1.942868 1.738252 -44.058671 -0.056024 0.116818 44.027935 -0.156594 -0.057999 -0.100170 -4.368758 -7.774578 4.492941 0.000000 0.000000 0.000000 7.977671 20.692311 -8.342950 82.100873 -14.235255 18.384460 29.859008 -4.256175 35.238554 -10.888999 6.177587 -15.745785 0.000000 0.000000 0.000000 0.000000 0.000000 0.000000 -6.288464 28.677586 4.010995 71.068500 60.474238 -26.957566 2.601718 9.320736 -18.816044 -2.308668 -37.580128 21.549641 0.000000 0.000000 0.000000 0.000000 0.000000 0.000000 5.864951 3.154900 43.550146 -3.424696 0.195915 0.531840 -2.339727 -2.694915 0.511493 0.000000 0.000000 0.000000 5.540804 3.621151 44.233884 -4.557406 -0.468808 -0.262182 1.510158 -3.142407 -1.802423 0.000000 0.000000 0.000000
-35.587715 82.609721 345.123352 -1.934703 1.795514 -44.569274 -0.059791 0.060592 44.537017 -0.158498 -0.060529 -0.101854 -4.463070 -7.638999 4.473108 0.000000 0.000000 0.000000 9.193509 22.350570 -9.396294 83.355796 -14.270843 21.035832 31.822827 -1.569551 32.927858 -15.730828 3.704767 -11.624070 0.000000 0.000000 0.000000 0.000000 0.000000 0.000000 -7.845912 29.584717 4.385280 74.463219 58.029483 -24.848103 0.797688 11.540062 -22.709515 0.954781 -36.210122 24.896644 0.000000 0.000000 0.000000 0.000000 0.000000 0.000000 5.914839 3.109731 44.089321 -3.437961 0.186502 0.526583 -2.170723 -2.179463 0.457157 0.000000 0.000000 0.000000 5.534862 3.760269 44.732399 -4.647844 -0.571909 -0.254954 1.316913 -3.903136 -1.914465 0.000000 0.000000 0.000000
-35.576983 82.788659 345.109293 -1.919917 1.835915 -45.198805 -0.060979 0.013375 45.165279 -0.156274 -0.060636 -0.102478 -4.538172 -7.499497 4.444461 0.000000 0.000000 0.000000 11.658042 24.162489 -11.152253 83.006513 -13.523640 23.404924 29.102668 2.832686 27.805567 -15.677346 -0.222844 -9.802787 0.000000 0.000000 0.000000 0.000000 0.000000 0.000000 -7.578082 30.431795 4.525063 71.839753 57.327670 -22.699412 1.698088 11.731958 -21.836843 -8.199708 -34.730957 16.062158 0.000000 0.000000 0.000000 0.000000 0.000000 0.000000 5.978308 3.074222 44.755773 -3.525258 0.176004 0.513906 -1.969262 -1.729096 0.401183 0.000000 0.000000 0.000000 5.461061 3.980060 45.336760 -4.753323 -0.748754 -0.239078 1.480600 -3.255375 -1.818331 0.000000 0.000000 0.000000
-35.548539 83.043218 345.120556 -1.888946 1.846212 -45.914742 -0.058758 -0.020417 45.880396 -0.164496 -0.045814 -0.102576 -4.799708 -7.188754 4.401770 0.000000 0.000000 0.000000 14.388018 25.903128 -13.113978 83.980484 -13.200903 26.646505 22.327799 9.451152 20.386500 -14.838680 -2.143749 -9.918992 0.000000 0.000000 0.000000 0.000000 0.000000 0.000000 -4.950442 30.942150 4.259419 62.642898 57.022051 -20.051092 4.536101 10.968095 -17.555066 -16.940993 -29.732462 7.340326 0.000000 0.000000 0.000000 0.000000 0.000000 0.000000 5.936182 3.089534 45.483671 -3.563637 0.136456 0.514578 -1.690307 -1.133764 0.303852 0.000000 0.000000 0.000000 5.299416 4.251829 46.016735 -4.853470 -0.983430 -0.215345 1.285957 -3.519001 -1.783703 0.000000 0.000000 0.000000
-35.509457 83.335228 345.149593 -1.849496 1.827880 -46.689041 -0.051029 -0.052162 46.653809 -0.186099 -0.026078 -0.103099 -5.166236 -6.744518 4.353740 0.000000 0.000000 0.000000 17.061069 27.626524 -15.132311 83.075420 -12.645672 29.151051 20.039312 6.346756 23.809607 -14.305480 9.264055 -17.681198 0.000000 0.000000 0.000000 0.000000 0.000000 0.000000 -4.198185 31.582438 4.259838 59.013382 55.697622 -17.869435 6.753360 13.785196 -17.675352 -21.546801 -31.086559 3.284978 0.000000 0.000000 0.000000 0.000000 0.000000 0.000000 5.835684 3.137210 46.258116 -3.590894 0.045522 0.530418 -1.529890 -0.627347 0.281453 0.000000 0.000000 0.000000 5.066582 4.547710 46.748987 -4.936504 -1.249679 -0.186416 1.052397 -4.124969 -1.829169 0.000000 0.000000 0.000000
-35.465126 83.630380 345.197834 -1.808019 1.801259 -47.448716 -0.058720 -0.063351 47.413112 -0.213888 -0.003165 -0.103956 -5.453222 -6.507358 4.350896 0.000000 0.000000 0.000000 19.182124 29.244430 -16.900618 82.508142 -12.854536 32.114290 17.882019 -0.116949 29.839894 -11.421958 23.709222 -25.970489 0.000000 0.000000 0.000000 0.000000 0.000000 0.000000 -4.089691 32.529176 4.402191 56.171162 53.293259 -14.858647 6.710969 15.486558 -18.796325 -23.100641 -31.980656 1.723631 0.000000 0.000000 0.000000 0.000000 0.000000 0.000000 5.674029 3.198862 47.003315 -3.541163 -0.127918 0.575522 -1.486255 -0.077640 0.306170 0.000000 0.000000 0.000000 4.803330 4.834180 47.465950 -5.002668 -1.524297 -0.155347 0.205411 -5.611506 -1.799175 0.000000 0.000000 0.000000
-35.420893 83.876887 345.256512 -1.774590 1.754936 -48.120360 -0.078300 -0.077598 48.083632 -0.241258 0.014016 -0.105525 -5.815574 -6.109023 4.328983 0.000000 0.000000 0.000000 20.331567 30.436154 -17.998938 83.526877 -13.697641 35.242634 14.618935 -4.786879 33.400631 -7.410611 29.726184 -29.025831 0.000000 0.000000 0.000000 0.000000 0.000000 0.000000 -3.395516 32.500997 4.292088 56.606932 53.173612 -15.523505 6.160405 13.964750 -17.941122 -23.816802 -28.941790 0.942440 0.000000 0.000000 0.000000 0.000000 0.000000 0.000000 5.490164 3.291382 47.647877 -3.461448 -0.286494 0.624136 -1.538540 0.278864 0.358797 0.000000 0.000000 0.000000 4.551477 5.106107 48.099529 -5.066347 -1.770420 -0.128163 -0.682482 -6.228602 -1.492780 0.000000 0.000000 0.000000
-35.381995 84.061949 345.304082 -1.763133 1.719621 -48.633744 -0.093281 -0.097974 48.595534 -0.267717 0.030552 -0.107987 -6.391592 -5.359031 4.256686 0.000000 0.000000 0.000000 20.005062 31.754218 -18.303280 85.092679 -14.204607 37.544722 12.179733 -12.602475 39.638841 2.876234 36.797618 -37.096923 0.000000 0.000000 0.000000 0.000000 0.000000 0.000000 -4.317120 30.913466 4.174411 60.974070 53.097258 -17.107568 6.235689 14.345631 -18.393623 -21.816525 -28.853043 2.980660 0.000000 0.000000 0.000000 0.000000 0.000000 0.000000 5.379355 3.387990 48.137821 -3.438161 -0.452917 0.674815 -1.655051 0.618273 0.470742 0.000000 0.000000 0.000000 4.390158 5.304680 48.589195 -5.119716 -1.928143 -0.111998 -0.979504 -6.307904 -1.351174 0.000000 0.000000 0.000000
-35.358211 84.154024 345.334790 -1.786459 1.708798 -49.033562 -0.135570 -0.121120 48.992914 -0.287270 0.037252 -0.112478 -7.010038 -4.485907 4.166896 0.000000 0.000000 0.000000 17.786538 32.799931 -17.365586 88.101252 -15.381596 39.716271 13.001473 -15.809040 41.964479 4.948526 33.334089 -35.946891 0.000000 0.000000 0.000000 0.000000 0.000000 0.000000 -3.854073 30.621344 4.083318 62.924519 51.306625 -17.106484 5.885675 18.726000 -23.417720 -15.836612 -31.227549 8.932309 0.000000 0.000000 0.000000 0.000000 0.000000 0.000000 5.394921 3.495755 48.524637 -3.497686 -0.503148 0.693967 -1.781888 0.836994 0.616228 0.000000 0.000000 0.000000 4.337458 5.451236 48.978086 -5.173590 -2.006058 -0.106511 -0.585712 -5.410917 -1.290085 0.000000 0.000000 0.000000
-35.347173 84.164489 345.343699 -1.832424 1.739045 -49.259558 -0.179534 -0.151106 49.216259 -0.286273 0.036073 -0.116690 -7.658188 -3.620972 4.089419 0.000000 0.000000 0.000000 14.747257 33.205237 -15.707824 90.578687 -16.124574 40.137233 17.663008 -21.260385 47.938734 6.419579 31.289981 -35.843351 0.000000 0.000000 0.000000 0.000000 0.000000 0.000000 -1.604285 30.576226 3.796821 63.752302 50.752922 -18.776118 4.642862 23.620576 -30.803293 -4.380239 -36.285838 20.746081 0.000000 0.000000 0.000000 0.000000 0.000000 0.000000 5.521683 3.576352 48.750305 -3.627574 -0.456844 0.682929 -1.890806 0.954914 0.783090 0.000000 0.000000 0.000000 4.402099 5.530394 49.205425 -5.230965 -2.011278 -0.110923 0.636537 -3.510460 -1.407941 0.000000 0.000000 0.000000
